<svg id="Layer_1" data-name="Layer 1" xmlns="http://www.w3.org/2000/svg" viewBox="0 0 135.07 64.28"><defs><style>.cls-1{font-size:16px;stroke:#33a457;stroke-miterlimit:10;stroke-width:0.5px;font-family:Georgia;letter-spacing:0.05em;}.cls-1,.cls-4{fill:#33a457;}.cls-2,.cls-3{stroke:#000;}.cls-3{font-size:15px;letter-spacing:0.05em;fill:#000;stroke-miterlimit:4;}</style></defs><text class="cls-1" transform="translate(40.35 34.37)">Pharmacy<tspan class="cls-2" x="77.64" y="0"> </tspan><tspan class="cls-3"><tspan x="0" y="17">Online</tspan></tspan></text><text x="-514.65" y="-466.72"/><path class="cls-4" d="M525.74,505.3c.3,8.94,3.59,15.07,6.55,15.07s6.25-6.13,6.55-15.07Z" transform="translate(-514.65 -466.72)"/><path class="cls-4" d="M532.29,487.61c-3,0-6.25,6.12-6.55,15.07h13.1C538.54,493.73,535.26,487.61,532.29,487.61Z" transform="translate(-514.65 -466.72)"/><path class="cls-4" d="M541.47,502.68h8.46a17.68,17.68,0,0,0-13.63-15.92C539.25,489.56,541.25,495.45,541.47,502.68Z" transform="translate(-514.65 -466.72)"/><path class="cls-4" d="M541.47,505.3c-.22,7.23-2.22,13.11-5.17,15.92a17.7,17.7,0,0,0,13.63-15.92Z" transform="translate(-514.65 -466.72)"/><path d="M523.12,505.3h-8.47a17.73,17.73,0,0,0,13.63,15.92C525.33,518.41,523.33,512.53,523.12,505.3Z" transform="translate(-514.65 -466.72)"/><path d="M523.12,502.68c.21-7.23,2.21-13.12,5.16-15.92a17.71,17.71,0,0,0-13.63,15.92Z" transform="translate(-514.65 -466.72)"/></svg>